# xmcd
#
# Track frame offsets: 
#        150
#        19293
#        35099
#        54208
#        71934
#        89362
#        105926
#        122113
#        141906
#        153191
#        172228
#        191776
#        209227
#        225316
#        238927
#
# Disc length: 3415 seconds
#
# Revision: 0
# Processed by: cddbd v1.5.2PL0 Copyright (c) Steve Scherf et al.
# Submitted via: ExactAudioCopy v1.0b3
#
DISCID=dc0d550f
DTITLE=Calexico - Algiers
DYEAR=2012
DGENRE=Blues
TTITLE0=Epic
TTITLE1=Splitter
TTITLE2=Sinner in the Sea
TTITLE3=Fortune Teller
TTITLE4=Para
TTITLE5=Algiers
TTITLE6=Maybe on Monday
TTITLE7=Puerto
TTITLE8=Better and Better
TTITLE9=No Te Vayas
TTITLE10=Hush
TTITLE11=The Vanishing Mind
TTITLE12=Dead Moon
TTITLE13=La Maqunina
TTITLE14=Ghost of a River
EXTD=
EXTT0=
EXTT1=
EXTT2=
EXTT3=
EXTT4=
EXTT5=
EXTT6=
EXTT7=
EXTT8=
EXTT9=
EXTT10=
EXTT11=
EXTT12=
EXTT13=
EXTT14=
PLAYORDER=
